# xmcd CD database file
#
# Track frame offsets:
#	150
#	12257
#	28743
#	48499
#	64253
#	68846
#	92011
#	114710
#	121065
#	137996
#	160990
#	177827
#
# Disc length: 2448 seconds
#
# Revision: 2
# Processed by: cddbd v1.4PL0 Copyright (c) Steve Scherf et al.
# Submitted via: CDex 1.40Beta9
#
DISCID=a5098e0c
DTITLE=Hobo Blues Band - Csavargók könyve
DYEAR=1988
DGENRE=Blues
TTITLE0=Csavargók könyve
TTITLE1=Vándorvers
TTITLE2=Apák rock and rollja
TTITLE3=Tüzes angyal
TTITLE4=Mondd, testvér, mi a jó úton megyünk?
TTITLE5=Halj meg és nagy leszel!
TTITLE6=Fiúk rock and rollja
TTITLE7=Nincs hova futni
TTITLE8=Rohadt rock and roll
TTITLE9=Másik Magyarország
TTITLE10=Szép idõk II.
TTITLE11=Üzenet az útról
EXTD=YEAR: 1988 ID3G: 0
EXTT0=
EXTT1=
EXTT2=
EXTT3=
EXTT4=
EXTT5=
EXTT6=
EXTT7=
EXTT8=
EXTT9=
EXTT10=
EXTT11=
PLAYORDER=
